<svg width="407" height="127" viewBox="0 0 407 127" fill="none" xmlns="http://www.w3.org/2000/svg">
<path d="M67.74 12.67L66.9644 13.3013L68.74 15.4827V12.67H67.74ZM13 14.37L13.7217 15.0623L13.7286 15.0549L13 14.37ZM13 75.4L12.2713 76.0849L12.2783 76.0922L13 75.4ZM67.74 76.93H68.74V74.1173L66.9644 76.2987L67.74 76.93ZM29.15 92.23L30.0271 91.7497L29.5355 90.852L28.6495 91.3643L29.15 92.23ZM7.39 104.81L6.8895 103.944L6.03843 104.436L6.51584 105.296L7.39 104.81ZM79.47 115.01L78.8528 114.223L78.8434 114.231L79.47 115.01ZM92.56 4H93.56V3H92.56V4ZM67.74 4V3H66.74V4H67.74ZM32.38 59.08L33.0543 58.3415L33.0543 58.3415L32.38 59.08ZM61.96 59.08L61.2857 58.3415L61.2857 58.3415L61.96 59.08ZM68.5156 12.0387C62.3554 4.47056 53.8972 0.62 42.92 0.62V2.62C53.3628 2.62 61.2246 6.24944 66.9644 13.3013L68.5156 12.0387ZM42.92 0.62C30.7526 0.62 20.4561 4.97789 12.2714 13.6851L13.7286 15.0549C21.5239 6.76211 31.2874 2.62 42.92 2.62V0.62ZM12.2783 13.6778C4.09874 22.2054 0.1 32.6583 0.1 44.8H2.1C2.1 33.1417 5.92126 23.1946 13.7217 15.0622L12.2783 13.6778ZM0.1 44.8C0.1 56.9436 4.0997 67.3916 12.2714 76.0849L13.7286 74.7151C5.9203 66.4084 2.1 56.4564 2.1 44.8H0.1ZM12.2783 76.0922C20.4613 84.6234 30.754 88.98 42.92 88.98V86.98C31.286 86.98 21.5187 82.8366 13.7217 74.7078L12.2783 76.0922ZM42.92 88.98C53.8972 88.98 62.3554 85.1294 68.5156 77.5613L66.9644 76.2987C61.2246 83.3506 53.3628 86.98 42.92 86.98V88.98ZM66.74 76.93V84.75H68.74V76.93H66.74ZM66.74 84.75C66.74 90.4083 65.0237 94.6644 61.9781 97.5135C58.9225 100.372 54.3944 101.94 48.53 101.94V103.94C54.7356 103.94 59.8125 102.278 63.3444 98.974C66.8863 95.6606 68.74 90.8217 68.74 84.75H66.74ZM48.53 101.94C39.8376 101.94 33.7398 98.5295 30.0271 91.7497L28.2729 92.7103C32.3802 100.211 39.2024 103.94 48.53 103.94V101.94ZM28.6495 91.3643L6.8895 103.944L7.8905 105.676L29.6505 93.0957L28.6495 91.3643ZM6.51584 105.296C14.3854 119.461 28.2054 126.38 47.68 126.38V124.38C28.7346 124.38 15.6946 117.699 8.26416 104.324L6.51584 105.296ZM47.68 126.38C60.2809 126.38 71.2221 122.924 80.0966 115.789L78.8434 114.231C70.3779 121.036 59.8991 124.38 47.68 124.38V126.38ZM80.0871 115.797C89.0466 108.77 93.56 98.4208 93.56 84.75H91.56C91.56 97.9392 87.2334 107.65 78.8529 114.223L80.0871 115.797ZM93.56 84.75V4H91.56V84.75H93.56ZM92.56 3H67.74V5H92.56V3ZM66.74 4V12.67H68.74V4H66.74ZM33.0543 58.3415C29.3863 54.9925 27.6 50.5195 27.6 44.8H25.6C25.6 50.9805 27.5537 56.0275 31.7057 59.8185L33.0543 58.3415ZM27.6 44.8C27.6 39.0805 29.3863 34.6075 33.0543 31.2585L31.7057 29.7815C27.5537 33.5725 25.6 38.6195 25.6 44.8H27.6ZM33.0543 31.2585C36.7645 27.8709 41.4476 26.08 47.17 26.08V24.08C40.9924 24.08 35.8155 26.0291 31.7057 29.7815L33.0543 31.2585ZM47.17 26.08C52.8924 26.08 57.5755 27.8709 61.2857 31.2585L62.6343 29.7815C58.5245 26.0291 53.3476 24.08 47.17 24.08V26.08ZM61.2857 31.2585C64.9537 34.6075 66.74 39.0805 66.74 44.8H68.74C68.74 38.6195 66.7863 33.5725 62.6343 29.7815L61.2857 31.2585ZM66.74 44.8C66.74 50.5195 64.9537 54.9925 61.2857 58.3415L62.6343 59.8185C66.7863 56.0275 68.74 50.9805 68.74 44.8H66.74ZM61.2857 58.3415C57.5755 61.7291 52.8924 63.52 47.17 63.52V65.52C53.3476 65.52 58.5245 63.5709 62.6343 59.8185L61.2857 58.3415ZM47.17 63.52C41.4476 63.52 36.7645 61.7291 33.0543 58.3415L31.7057 59.8185C35.8155 63.5709 40.9924 65.52 47.17 65.52V63.52ZM136.768 4H137.768V3H136.768V4ZM111.268 4V3H110.268V4H111.268ZM111.268 89H110.268V90H111.268V89ZM136.768 89V90H137.768V89H136.768ZM144.758 34.43L145.26 35.2948L145.269 35.2899L144.758 34.43ZM162.268 31.2L162.108 32.1871L163.268 32.3752V31.2H162.268ZM162.268 2.29999H163.268V1.29999H162.268V2.29999ZM136.768 19.13H135.768L137.727 19.4146L136.768 19.13ZM136.768 3H111.268V5H136.768V3ZM110.268 4V89H112.268V4H110.268ZM111.268 90H136.768V88H111.268V90ZM137.768 89V50.58H135.768V89H137.768ZM137.768 50.58C137.768 43.1861 140.376 38.1306 145.26 35.2948L144.256 33.5652C138.6 36.8494 135.768 42.6739 135.768 50.58H137.768ZM145.269 35.2899C150.498 32.1847 156.04 31.203 162.108 32.1871L162.428 30.2129C155.916 29.157 149.898 30.2153 144.247 33.5701L145.269 35.2899ZM163.268 31.2V2.29999H161.268V31.2H163.268ZM162.268 1.29999C150.405 1.29999 139.201 7.42104 135.809 18.8454L137.727 19.4146C140.795 9.07895 151.011 3.29999 162.268 3.29999V1.29999ZM137.768 19.13V4H135.768V19.13H137.768ZM233.408 11.99L232.647 12.6393L234.408 14.7016V11.99H233.408ZM179.348 14.71L180.083 15.3877L180.083 15.3877L179.348 14.71ZM179.348 78.46L178.612 79.1377L179.348 78.46ZM233.408 81.01H234.408V78.2984L232.647 80.3607L233.408 81.01ZM233.408 89H232.408V90H233.408V89ZM258.908 89V90H259.908V89H258.908ZM258.908 4H259.908V3H258.908V4ZM233.408 4V3H232.408V4H233.408ZM227.798 31.37L228.505 30.6629L228.505 30.6629L227.798 31.37ZM227.798 61.63L228.505 62.3371L228.505 62.3371L227.798 61.63ZM234.168 11.3407C227.987 4.09985 219.18 0.62 208.078 0.62V2.62C218.735 2.62 226.928 5.94014 232.647 12.6393L234.168 11.3407ZM208.078 0.62C196.555 0.62 186.775 5.17454 178.612 14.0323L180.083 15.3877C187.9 6.90545 197.16 2.62 208.078 2.62V0.62ZM178.612 14.0323C170.438 22.9023 166.448 33.6906 166.448 46.5H168.448C168.448 34.1494 172.277 23.8577 180.083 15.3877L178.612 14.0323ZM166.448 46.5C166.448 59.3055 170.436 70.2651 178.612 79.1377L180.083 77.7823C172.28 69.3149 168.448 58.8544 168.448 46.5H166.448ZM178.612 79.1377C186.783 88.0036 196.566 92.38 208.078 92.38V90.38C197.15 90.38 187.892 86.2564 180.083 77.7823L178.612 79.1377ZM208.078 92.38C219.18 92.38 227.987 88.9001 234.168 81.6593L232.647 80.3607C226.928 87.0599 218.735 90.38 208.078 90.38V92.38ZM232.408 81.01V89H234.408V81.01H232.408ZM233.408 90H258.908V88H233.408V90ZM259.908 89V4H257.908V89H259.908ZM258.908 3H233.408V5H258.908V3ZM232.408 4V11.99H234.408V4H232.408ZM199.265 60.9229C195.75 57.4079 193.948 52.583 193.948 46.5H191.948C191.948 52.997 193.886 58.3721 197.851 62.3371L199.265 60.9229ZM193.948 46.5C193.948 40.417 195.75 35.5921 199.265 32.0771L197.851 30.6629C193.886 34.6279 191.948 40.003 191.948 46.5H193.948ZM199.265 32.0771C202.79 28.5516 207.452 26.76 213.178 26.76V24.76C207.003 24.76 201.805 26.7084 197.851 30.6629L199.265 32.0771ZM213.178 26.76C218.903 26.76 223.565 28.5516 227.091 32.0771L228.505 30.6629C224.55 26.7084 219.352 24.76 213.178 24.76V26.76ZM227.091 32.0771C230.606 35.5921 232.408 40.417 232.408 46.5H234.408C234.408 40.003 232.47 34.6279 228.505 30.6629L227.091 32.0771ZM232.408 46.5C232.408 52.583 230.606 57.4079 227.091 60.9229L228.505 62.3371C232.47 58.3721 234.408 52.997 234.408 46.5H232.408ZM227.091 60.9229C223.565 64.4484 218.903 66.24 213.178 66.24V68.24C219.352 68.24 224.55 66.2916 228.505 62.3371L227.091 60.9229ZM213.178 66.24C207.452 66.24 202.79 64.4484 199.265 60.9229L197.851 62.3371C201.805 66.2916 207.003 68.24 213.178 68.24V66.24ZM348.166 12.84L347.331 13.3903L348.138 14.6153L348.983 13.416L348.166 12.84ZM303.116 11.82H302.116V15.0889L303.944 12.3795L303.116 11.82ZM303.116 4H304.116V3H303.116V4ZM277.616 4V3H276.616V4H277.616ZM277.616 89H276.616V90H277.616V89ZM303.116 89V90H304.116V89H303.116ZM328.616 89H327.616V90H328.616V89ZM354.116 89V90H355.116V89H354.116ZM379.616 89H378.616V90H379.616V89ZM405.116 89V90H406.116V89H405.116ZM396.276 11.31L395.54 11.9875L395.549 11.9972L396.276 11.31ZM372.816 0.62C361.35 0.62 352.847 4.45896 347.348 12.264L348.983 13.416C354.024 6.26103 361.841 2.62 372.816 2.62V0.62ZM349.001 12.2897C343.863 4.49436 336.048 0.62 325.896 0.62V2.62C335.463 2.62 342.608 6.22564 347.331 13.3903L349.001 12.2897ZM325.896 0.62C315.133 0.62 307.117 4.10524 302.287 11.2605L303.944 12.3795C308.295 5.93476 315.578 2.62 325.896 2.62V0.62ZM304.116 11.82V4H302.116V11.82H304.116ZM303.116 3H277.616V5H303.116V3ZM276.616 4V89H278.616V4H276.616ZM277.616 90H303.116V88H277.616V90ZM304.116 89V41.06H302.116V89H304.116ZM304.116 41.06C304.116 36.1961 305.312 32.4546 307.392 29.9472C309.451 27.4645 312.468 26.08 316.376 26.08V24.08C311.954 24.08 308.34 25.6705 305.852 28.6703C303.384 31.6454 302.116 35.8939 302.116 41.06H304.116ZM316.376 26.08C320.138 26.08 322.897 27.3113 324.733 29.4501C326.589 31.6122 327.616 34.8347 327.616 39.02H329.616C329.616 34.5353 328.517 30.7878 326.251 28.1474C323.964 25.4837 320.603 24.08 316.376 24.08V26.08ZM327.616 39.02V89H329.616V39.02H327.616ZM328.616 90H354.116V88H328.616V90ZM355.116 89V41.06H353.116V89H355.116ZM355.116 41.06C355.116 36.1961 356.312 32.4546 358.392 29.9472C360.451 27.4645 363.468 26.08 367.376 26.08V24.08C362.954 24.08 359.34 25.6705 356.852 28.6703C354.384 31.6454 353.116 35.8939 353.116 41.06H355.116ZM367.376 26.08C371.138 26.08 373.897 27.3113 375.733 29.4501C377.589 31.6122 378.616 34.8347 378.616 39.02H380.616C380.616 34.5353 379.517 30.7878 377.251 28.1474C374.964 25.4837 371.603 24.08 367.376 24.08V26.08ZM378.616 39.02V89H380.616V39.02H378.616ZM379.616 90H405.116V88H379.616V90ZM406.116 89V36.81H404.116V89H406.116ZM406.116 36.81C406.116 25.9152 403.171 17.1442 397.002 10.6228L395.549 11.9972C401.28 18.0558 404.116 26.2848 404.116 36.81H406.116ZM397.011 10.6325C390.851 3.94446 382.753 0.62 372.816 0.62V2.62C382.258 2.62 389.8 5.75553 395.54 11.9875L397.011 10.6325Z" fill="#0088CC"/>
</svg>
