<svg width="299" height="130" viewBox="0 0 299 130" fill="none" xmlns="http://www.w3.org/2000/svg">
<path d="M58.16 41H59.16V40H58.16V41ZM40.65 41H39.65V42H40.65V41ZM40.65 17.2H41.65V15.856L40.3627 16.2422L40.65 17.2ZM15.15 24.85L14.8627 23.8922L14.15 24.106V24.85H15.15ZM15.15 41V42H16.15V41H15.15ZM1.55 41V40H0.55V41H1.55ZM1.55 65.48H0.55V66.48H1.55V65.48ZM15.15 65.48H16.15V64.48H15.15V65.48ZM24.5 121.41L23.8831 122.197L23.8898 122.202L23.8966 122.207L24.5 121.41ZM58.16 126L58.2647 126.995L59.16 126.9V126H58.16ZM58.16 102.88H59.16V101.824L58.1053 101.881L58.16 102.88ZM40.65 65.48V64.48H39.65V65.48H40.65ZM58.16 65.48V66.48H59.16V65.48H58.16ZM58.16 40H40.65V42H58.16V40ZM41.65 41V17.2H39.65V41H41.65ZM40.3627 16.2422L14.8627 23.8922L15.4373 25.8078L40.9373 18.1578L40.3627 16.2422ZM14.15 24.85V41H16.15V24.85H14.15ZM15.15 40H1.55V42H15.15V40ZM0.55 41V65.48H2.55V41H0.55ZM1.55 66.48H15.15V64.48H1.55V66.48ZM14.15 65.48V95.57H16.15V65.48H14.15ZM14.15 95.57C14.15 108.113 17.241 116.991 23.8831 122.197L25.1169 120.623C19.179 115.969 16.15 107.847 16.15 95.57H14.15ZM23.8966 122.207C30.5173 127.218 42.0887 128.697 58.2647 126.995L58.0553 125.005C41.9313 126.703 31.0627 125.122 25.1034 120.613L23.8966 122.207ZM59.16 126V102.88H57.16V126H59.16ZM58.1053 101.881C51.8755 102.223 47.7043 102.072 45.1031 101.094C43.8431 100.62 43.0147 99.9739 42.4847 99.1401C41.9471 98.2944 41.65 97.1514 41.65 95.57H39.65C39.65 97.3886 39.9904 98.9443 40.7969 100.213C41.6109 101.494 42.8332 102.377 44.3994 102.966C47.4507 104.113 52.0345 104.217 58.2147 103.879L58.1053 101.881ZM41.65 95.57V65.48H39.65V95.57H41.65ZM40.65 66.48H58.16V64.48H40.65V66.48ZM59.16 65.48V41H57.16V65.48H59.16ZM154.068 93.7V94.7H154.879L155.046 93.906L154.068 93.7ZM142.678 51.54L141.95 52.2254L141.957 52.2327L141.964 52.2399L142.678 51.54ZM79.2679 51.54L78.5538 50.8399L78.5537 50.8401L79.2679 51.54ZM79.4379 115.63L78.7307 116.337L78.7378 116.344L79.4379 115.63ZM150.838 110.87L151.653 111.449L152.29 110.552L151.336 110.003L150.838 110.87ZM130.438 99.14L130.936 98.2731L130.243 97.8746L129.702 98.4629L130.438 99.14ZM93.7179 93.7V92.7H92.2928L92.7775 94.0401L93.7179 93.7ZM93.2079 74.66L92.2457 74.3877L91.8856 75.66H93.2079V74.66ZM129.758 74.66V75.66H131.08L130.72 74.3877L129.758 74.66ZM155.046 93.906C155.742 90.603 156.088 87.1336 156.088 83.5H154.088C154.088 87.0063 153.754 90.337 153.089 93.494L155.046 93.906ZM156.088 83.5C156.088 70.5161 151.924 59.546 143.392 50.8401L141.964 52.2399C150.092 60.534 154.088 70.9839 154.088 83.5H156.088ZM143.406 50.8546C135.046 41.9724 124.577 37.62 111.908 37.62V39.62C124.058 39.62 133.989 43.7676 141.95 52.2254L143.406 50.8546ZM111.908 37.62C98.4117 37.62 87.2635 41.9561 78.5538 50.8399L79.982 52.2401C88.2723 43.7839 98.8841 39.62 111.908 39.62V37.62ZM78.5537 50.8401C70.0286 59.5391 65.6879 70.5058 65.6879 83.5H67.6879C67.6879 70.9942 71.8472 60.5409 79.9821 52.2399L78.5537 50.8401ZM65.6879 83.5C65.6879 96.6633 70.0283 107.635 78.7308 116.337L80.145 114.923C71.8475 106.625 67.6879 96.1767 67.6879 83.5H65.6879ZM78.7378 116.344C87.6262 125.058 99.2837 129.38 113.778 129.38V127.38C99.7121 127.38 88.5896 123.202 80.138 114.916L78.7378 116.344ZM113.778 129.38C130.365 129.38 143.105 123.486 151.653 111.449L150.023 110.291C141.911 121.714 129.831 127.38 113.778 127.38V129.38ZM151.336 110.003L130.936 98.2731L129.939 100.007L150.339 111.737L151.336 110.003ZM129.702 98.4629C126.014 102.472 120.86 104.6 114.118 104.6V106.6C121.316 106.6 127.042 104.308 131.174 99.8171L129.702 98.4629ZM114.118 104.6C108.876 104.6 104.689 103.642 101.488 101.782C98.3067 99.9326 96.0299 97.1519 94.6583 93.3599L92.7775 94.0401C94.2959 98.2381 96.864 101.407 100.483 103.511C104.082 105.603 108.65 106.6 114.118 106.6V104.6ZM93.7179 94.7H154.068V92.7H93.7179V94.7ZM94.1701 74.9323C95.3985 70.5918 97.4583 67.4471 100.318 65.3762C103.184 63.3012 106.955 62.23 111.738 62.23V60.23C106.661 60.23 102.442 61.3688 99.1451 63.7563C95.8425 66.1479 93.5672 69.7182 92.2457 74.3877L94.1701 74.9323ZM111.738 62.23C116.344 62.23 119.984 63.2977 122.764 65.3683C125.543 67.4374 127.565 70.584 128.796 74.9323L130.72 74.3877C129.401 69.7259 127.173 66.1576 123.959 63.7642C120.747 61.3723 116.652 60.23 111.738 60.23V62.23ZM129.758 73.66H93.2079V75.66H129.758V73.66ZM195.051 126V127H196.051V126H195.051ZM195.051 1.9H196.051V0.899997H195.051V1.9ZM169.551 1.9V0.899997H168.551V1.9H169.551ZM169.551 126H168.551V127H169.551V126ZM196.051 126V1.9H194.051V126H196.051ZM195.051 0.899997H169.551V2.9H195.051V0.899997ZM168.551 1.9V126H170.551V1.9H168.551ZM169.551 127H195.051V125H169.551V127ZM296.841 93.7V94.7H297.653L297.82 93.906L296.841 93.7ZM285.451 51.54L284.723 52.2254L284.73 52.2327L284.737 52.2399L285.451 51.54ZM222.041 51.54L221.327 50.8399L221.327 50.8401L222.041 51.54ZM222.211 115.63L221.504 116.337L221.511 116.344L222.211 115.63ZM293.611 110.87L294.427 111.449L295.064 110.552L294.11 110.003L293.611 110.87ZM273.211 99.14L273.71 98.2731L273.017 97.8746L272.475 98.4629L273.211 99.14ZM236.491 93.7V92.7H235.066L235.551 94.0401L236.491 93.7ZM235.981 74.66L235.019 74.3877L234.659 75.66H235.981V74.66ZM272.531 74.66V75.66H273.854L273.494 74.3877L272.531 74.66ZM297.82 93.906C298.515 90.603 298.861 87.1336 298.861 83.5H296.861C296.861 87.0063 296.527 90.337 295.863 93.494L297.82 93.906ZM298.861 83.5C298.861 70.5161 294.697 59.546 286.166 50.8401L284.737 52.2399C292.865 60.534 296.861 70.9839 296.861 83.5H298.861ZM286.18 50.8546C277.82 41.9724 267.351 37.62 254.681 37.62V39.62C266.832 39.62 276.763 43.7676 284.723 52.2254L286.18 50.8546ZM254.681 37.62C241.185 37.62 230.037 41.9561 221.327 50.8399L222.755 52.2401C231.046 43.7839 241.658 39.62 254.681 39.62V37.62ZM221.327 50.8401C212.802 59.5391 208.461 70.5058 208.461 83.5H210.461C210.461 70.9942 214.621 60.5409 222.756 52.2399L221.327 50.8401ZM208.461 83.5C208.461 96.6633 212.802 107.635 221.504 116.337L222.918 114.923C214.621 106.625 210.461 96.1767 210.461 83.5H208.461ZM221.511 116.344C230.4 125.058 242.057 129.38 256.551 129.38V127.38C242.485 127.38 231.363 123.202 222.911 114.916L221.511 116.344ZM256.551 129.38C273.138 129.38 285.878 123.486 294.427 111.449L292.796 110.291C284.684 121.714 272.604 127.38 256.551 127.38V129.38ZM294.11 110.003L273.71 98.2731L272.713 100.007L293.113 111.737L294.11 110.003ZM272.475 98.4629C268.787 102.472 263.634 104.6 256.891 104.6V106.6C264.089 106.6 269.815 104.308 273.947 99.8171L272.475 98.4629ZM256.891 104.6C251.65 104.6 247.462 103.642 244.261 101.782C241.08 99.9326 238.803 97.1519 237.432 93.3599L235.551 94.0401C237.069 98.2381 239.637 101.407 243.256 103.511C246.856 105.603 251.423 106.6 256.891 106.6V104.6ZM236.491 94.7H296.841V92.7H236.491V94.7ZM236.944 74.9323C238.172 70.5918 240.232 67.4471 243.092 65.3762C245.957 63.3012 249.728 62.23 254.511 62.23V60.23C249.434 60.23 245.216 61.3688 241.919 63.7563C238.616 66.1479 236.341 69.7182 235.019 74.3877L236.944 74.9323ZM254.511 62.23C259.117 62.23 262.757 63.2977 265.538 65.3683C268.316 67.4374 270.338 70.584 271.569 74.9323L273.494 74.3877C272.174 69.7259 269.946 66.1576 266.732 63.7642C263.52 61.3723 259.426 60.23 254.511 60.23V62.23ZM272.531 73.66H235.981V75.66H272.531V73.66Z" fill="white"/>
</svg>
